<svg xmlns="http://www.w3.org/2000/svg" width="51.165" height="31.569" viewBox="0 0 51.165 31.569"><path d="M1,6.75V38.319H16.251c1.413,0,11.145-.287,11.145-9.172a7.774,7.774,0,0,0-5.759-8A6.793,6.793,0,0,0,25.9,14.589c0-2.386-.34-7.839-10.079-7.839ZM35.769,9.683v2.88H47.554V9.683ZM7.932,12.136h6.506c.613,0,4.746-.327,4.746,3.626,0,3.379-2.986,3.733-4.213,3.733H7.932Zm34.022,3.04c-8.912,0-10.772,7.739-10.772,11.092,0,9.952,8.159,11.092,10.772,11.092C49,37.359,51,32.8,51.82,30.267H46.7a4.926,4.926,0,0,1-4.533,2.773c-4.759,0-5.173-3.72-5.173-5.386H52.14C52.447,21.895,49.927,15.176,41.955,15.176Zm-.16,4.32a4.283,4.283,0,0,1,3.253,1.173,5.762,5.762,0,0,1,1.333,3.359H37a6.79,6.79,0,0,1,.267-1.386,4.088,4.088,0,0,1,.747-1.493A4.751,4.751,0,0,1,39.5,19.975,4.91,4.91,0,0,1,41.795,19.5ZM7.932,24.241h7.519c1.493,0,5.013.233,5.013,4.533,0,4.166-4.433,4.159-5.119,4.159H7.932Z" transform="translate(-1 -6.75)" fill="#565658"/></svg>