<svg xmlns="http://www.w3.org/2000/svg" width="41.605" height="41.605" viewBox="0 0 41.605 41.605"><path d="M37.444,0H4.16A4.173,4.173,0,0,0,0,4.16V37.444A4.173,4.173,0,0,0,4.16,41.6H37.444a4.173,4.173,0,0,0,4.16-4.16V4.16A4.173,4.173,0,0,0,37.444,0ZM12.481,35.364H6.241V16.642h6.241ZM9.361,13.105a3.744,3.744,0,1,1,3.744-3.744A3.729,3.729,0,0,1,9.361,13.105Zm26,22.258H29.123V24.339a3.12,3.12,0,0,0-6.241,0V35.364H16.642V16.642h6.241v2.5a6.72,6.72,0,0,1,5.2-2.912,7.371,7.371,0,0,1,7.281,7.281Z" fill="#565658"/></svg>