<svg xmlns="http://www.w3.org/2000/svg" width="48.109" height="46.922" viewBox="0 0 48.109 46.922"><defs><style>.a{fill:#565658;fill-rule:evenodd;}</style></defs><path class="a" d="M24.054,0a24.055,24.055,0,0,0-7.607,46.876c1.2.21,1.654-.511,1.654-1.143,0-.571-.03-2.466-.03-4.48-6.044,1.113-7.607-1.473-8.088-2.826-.271-.692-1.443-2.826-2.466-3.4-.842-.451-2.045-1.564-.03-1.594,1.894-.03,3.247,1.744,3.7,2.466,2.165,3.638,5.623,2.616,7.006,1.984a5.06,5.06,0,0,1,1.533-3.217c-5.352-.6-10.945-2.676-10.945-11.877a9.361,9.361,0,0,1,2.466-6.465,8.644,8.644,0,0,1,.241-6.374S13.5,9.321,18.1,12.418a22.678,22.678,0,0,1,12.027,0c4.6-3.127,6.615-2.466,6.615-2.466a8.644,8.644,0,0,1,.241,6.374,9.307,9.307,0,0,1,2.466,6.465c0,9.231-5.623,11.275-10.975,11.877a5.7,5.7,0,0,1,1.624,4.45c0,3.217-.03,5.8-.03,6.615,0,.631.451,1.383,1.654,1.143A24.067,24.067,0,0,0,24.054,0Z"/></svg>